<svg width="800" height="486" viewBox="0 0 800 486" fill="none" xmlns="http://www.w3.org/2000/svg">
<path d="M639.567 306.633C636.306 305.887 633.117 304.861 630.033 303.566C627.506 302.462 625.21 300.89 623.267 298.933C625.133 282.666 623.267 268.533 624.833 252.533C630.967 190.466 670 210.133 705.033 199.966C726.867 193.833 748.7 181.233 754.2 155.433C730.622 127.816 703.794 103.149 674.3 81.9662C579.3 14.3662 455.167 -12.7005 342.367 6.06621C359.617 36.1662 385.643 60.2849 416.967 75.1995C416.967 75.1995 386.4 75.1995 360.2 55.6329C352.533 58.6995 337.133 64.7662 329.767 68.4329C359.042 96.576 397.435 113.295 437.981 115.558C478.527 117.821 518.541 105.477 550.767 80.7662C550.433 81.3329 544.6 90.2662 537.533 127.433C521.867 206.766 476.667 200.6 420.733 180.633C304.567 138.5 240.633 177.533 182.567 97.6329C165.667 107.166 155.233 124.966 155.233 144.366C155.233 164.333 166.267 181.233 182.233 190.466C190.967 178.866 194.9 175.6 210.1 175.6C186.567 188.933 183.767 200.6 173.633 232.866C161.367 271.9 166.567 311.866 109.1 322.3C78.6667 323.833 79.3 344.433 68.2333 375.166C54.4 415.133 35.9667 431.1 0 468.9C14.7667 486.733 30.1333 488.9 45.8 482.433C78.0667 468.9 102.967 427.1 126.3 400.066C152.433 369.933 215.133 382.833 262.467 353.333C295.033 333.366 311.033 306.333 289.5 260.533C303.35 275.787 311.591 295.303 312.867 315.866C367.567 308.766 440.733 375.466 507.4 386.533C500.78 378.19 495.309 368.997 491.133 359.2C483.467 340.733 481 323.866 482.533 309.1C488.667 345.666 525.533 392.666 584.867 397C599.933 398.2 616.533 396.366 633.733 391.133C654.333 385 673.4 377 696.133 381.3C713.033 384.4 728.7 392.966 738.533 407.433C753.3 428.933 785.533 433.566 800 407.133C767.433 322 677.667 316.466 639.567 306.633Z" fill="black"/>
</svg>
