<svg xmlns="http://www.w3.org/2000/svg" fill="none" viewBox="0 0 110 125" height="125" width="110">
    <path fill="black" d="M74.8994 15.3759C74.8994 15.3759 73.4994 15.7759 71.1994 16.4759C70.7994 15.1759 70.1994 13.6759 69.3994 12.0759C66.7994 7.07595 62.8994 4.37595 58.2994 4.37595C57.9994 4.37595 57.6994 4.37595 57.2994 4.47595C57.1994 4.27595 56.9994 4.17595 56.8994 3.97595C54.8994 1.77595 52.2994 0.775949 49.1994 0.875949C43.1994 1.07595 37.1994 5.37595 32.3994 13.0759C28.9994 18.4759 26.3994 25.2759 25.6994 30.5759C18.7994 32.6759 13.9994 34.176 13.8994 34.276C10.3994 35.376 10.2994 35.476 9.8994 38.776C9.2994 41.276 0.199402 111.776 0.199402 111.776L75.7994 124.876V15.176C75.3994 15.276 75.0994 15.2759 74.8994 15.3759ZM57.3994 20.7759C53.3994 21.9759 48.9994 23.3759 44.6994 24.6759C45.8994 19.9759 48.2994 15.2759 51.0994 12.176C52.1994 11.076 53.6994 9.77595 55.3994 8.97595C57.0994 12.5759 57.4994 17.4759 57.3994 20.7759ZM49.2994 4.87595C50.6994 4.87595 51.8994 5.17595 52.8994 5.77595C51.2994 6.57595 49.6994 7.87595 48.1994 9.37595C44.3994 13.4759 41.4994 19.8759 40.2994 25.9759C36.6994 27.0759 33.0994 28.1759 29.7994 29.1759C31.8994 19.6759 39.9994 5.17595 49.2994 4.87595ZM37.5994 59.8759C37.9994 66.2759 54.8994 67.6759 55.8994 82.7759C56.5994 94.6759 49.5994 102.776 39.4994 103.376C27.2994 104.176 20.5994 96.976 20.5994 96.976L23.1994 85.976C23.1994 85.976 29.8994 91.0759 35.2994 90.6759C38.7994 90.4759 40.0994 87.576 39.9994 85.576C39.4994 77.176 25.6994 77.676 24.7994 63.8759C23.9994 52.3759 31.5994 40.676 48.3994 39.576C54.8994 39.176 58.1994 40.776 58.1994 40.776L54.3994 55.1759C54.3994 55.1759 50.0994 53.176 44.9994 53.576C37.5994 54.076 37.4994 58.7759 37.5994 59.8759ZM61.3994 19.5759C61.3994 16.5759 60.9994 12.2759 59.5994 8.67595C64.1994 9.57595 66.3994 14.6759 67.3994 17.7759C65.5994 18.2759 63.5994 18.8759 61.3994 19.5759Z"/>
    <path fill="black" d="M78.2994 124.476L109.699 116.676C109.699 116.676 96.1994 25.376 96.0994 24.776C95.9994 24.176 95.4994 23.776 94.9994 23.776C94.4994 23.776 85.6994 23.576 85.6994 23.576C85.6994 23.576 80.2994 18.376 78.2994 16.376V124.476V124.476Z"/>
</svg>