<svg width="668" height="398" viewBox="0 0 668 398" fill="none" xmlns="http://www.w3.org/2000/svg">
<path fill-rule="evenodd" clip-rule="evenodd" d="M334 0.200195C245.1 0.200195 189.567 44.3669 167.334 132.734C200.667 88.5669 239.567 72.0002 284 83.0335C309.367 89.3335 327.5 107.634 347.534 127.867C380.234 160.834 418.067 199 500.667 199C589.567 199 645.1 154.834 667.334 66.4669C634 110.634 595.134 127.2 550.667 116.167C525.3 109.867 507.167 91.5669 487.1 71.3335C454.434 38.3335 416.634 0.200195 334 0.200195ZM167.334 199C78.4337 199 22.9003 243.167 0.666992 331.534C34.0003 287.334 72.9003 270.8 117.334 281.833C142.7 288.133 160.834 306.434 180.9 326.667C213.567 359.634 251.4 397.8 334.034 397.8C422.934 397.8 478.467 353.634 500.7 265.267C467.367 309.434 428.467 326 384.034 314.967C358.667 308.667 340.534 290.367 320.5 270.134C287.767 237.167 249.934 199 167.334 199Z" fill="black"/>
</svg>
